# xmcd CD database file
#
# Track frame offsets:
#	150
#	24342
#	42440
#	61217
#
# Disc length: 1144 seconds
#
# Revision: 0
# Processed by: cddbd v1.5.1PL0 Copyright (c) Steve Scherf et al.
# Submitted via: CDex 1.51
#
DISCID=2a047604
DTITLE=noodles - 夢の奥のもっと奥
DYEAR=1998
DGENRE=Rock
TTITLE0=夢の奥のもっと奥
TTITLE1=スカッシュ
TTITLE2=つれていって
TTITLE3=ベルベットの川
EXTD=YEAR: 1998
EXTT0=
EXTT1=
EXTT2=
EXTT3=
PLAYORDER=
